<?xml version="1.0" encoding="utf-8"?>
<!-- Generator: Adobe Illustrator 21.0.0, SVG Export Plug-In . SVG Version: 6.00 Build 0)  -->
<svg version="1.1" id="Layer_1" xmlns="http://www.w3.org/2000/svg" xmlns:xlink="http://www.w3.org/1999/xlink" x="0px" y="0px"
	 width="24px" height="24px" viewBox="0 0 24 24" style="enable-background:new 0 0 24 24;" xml:space="preserve">
<style type="text/css">
	.st0{clip-path:url(#SVGID_2_);fill:#9B9B9B;}
	.st1{clip-path:url(#SVGID_2_);fill:#7F7F7F;}
	.st2{clip-path:url(#SVGID_2_);fill:#29FDDA;}
	.st3{clip-path:url(#SVGID_2_);}
	.st4{fill:#9B9B9B;}
</style>
<g>
	<defs>
		<circle id="SVGID_1_" cx="12" cy="12" r="11"/>
	</defs>
	<clipPath id="SVGID_2_">
		<use xlink:href="#SVGID_1_"  style="overflow:visible;"/>
	</clipPath>
	<circle class="st0" cx="12" cy="12" r="11"/>
	<path class="st1" d="M1.73333,26.99069L1.73333,26.99069C1.33,26.99069,1,26.66069,1,26.25736v-13.2
		c0-0.40333,0.33-0.73333,0.73333-0.73333h0c0.40333,0,0.73333,0.33,0.73333,0.73333v13.2
		C2.46667,26.66069,2.13667,26.99069,1.73333,26.99069z"/>
	<path class="st1" d="M4.66667,26.25736L4.66667,26.25736c-0.40333,0-0.73333-0.33-0.73333-0.73333v-13.2
		c0-0.40333,0.33-0.73333,0.73333-0.73333h0c0.40333,0,0.73333,0.33,0.73333,0.73333v13.2
		C5.4,25.92736,5.07,26.25736,4.66667,26.25736z"/>
	<path class="st1" d="M4.66667,10.41908L4.66667,10.41908c-0.40333,0-0.73333-0.33-0.73333-0.73333V9.09563
		c0-0.40333,0.33-0.73333,0.73333-0.73333h0C5.07,8.3623,5.4,8.6923,5.4,9.09563v0.59011
		C5.4,10.08908,5.07,10.41908,4.66667,10.41908z"/>
	<path class="st1" d="M10.53368,11.89403L10.53368,11.89403c-0.40333,0-0.73333-0.33-0.73333-0.73333v-0.59011
		c0-0.40333,0.33-0.73333,0.73333-0.73333h0c0.40333,0,0.73333,0.33,0.73333,0.73333v0.59011
		C11.26701,11.56404,10.93701,11.89403,10.53368,11.89403z"/>
	<path class="st1" d="M19.33333,12.61908L19.33333,12.61908c-0.40333,0-0.73333-0.33-0.73333-0.73333v-0.59011
		c0-0.40333,0.33-0.73333,0.73333-0.73333h0c0.40333,0,0.73333,0.33,0.73333,0.73333v0.59011
		C20.06667,12.28908,19.73667,12.61908,19.33333,12.61908z"/>
	<path class="st1" d="M7.6,27.72402L7.6,27.72402c-0.40333,0-0.73333-0.33-0.73333-0.73333v-13.2
		c0-0.40333,0.33-0.73333,0.73333-0.73333h0c0.40333,0,0.73333,0.33,0.73333,0.73333v13.2
		C8.33333,27.39402,8.00333,27.72402,7.6,27.72402z"/>
	<path class="st1" d="M10.53333,27.72402L10.53333,27.72402c-0.40333,0-0.73333-0.33-0.73333-0.73333v-13.2
		c0-0.40333,0.33-0.73333,0.73333-0.73333h0c0.40333,0,0.73333,0.33,0.73333,0.73333v13.2
		C11.26667,27.39402,10.93667,27.72402,10.53333,27.72402z"/>
	<path class="st1" d="M13.46667,25.52402L13.46667,25.52402c-0.40333,0-0.73333-0.33-0.73333-0.73333v-13.2
		c0-0.40333,0.33-0.73333,0.73333-0.73333h0c0.40333,0,0.73333,0.33,0.73333,0.73333v13.2
		C14.2,25.19402,13.87,25.52402,13.46667,25.52402z"/>
	<path class="st1" d="M16.4,26.25736L16.4,26.25736c-0.40334,0-0.73333-0.33-0.73333-0.73333v-13.2
		c0-0.40333,0.33-0.73333,0.73333-0.73333h0c0.40333,0,0.73333,0.33,0.73333,0.73333v13.2
		C17.13333,25.92736,16.80333,26.25736,16.4,26.25736z"/>
	<path class="st1" d="M19.33333,28.45736L19.33333,28.45736c-0.40333,0-0.73333-0.33-0.73333-0.73333v-13.2
		c0-0.40333,0.33-0.73333,0.73333-0.73333h0c0.40333,0,0.73333,0.33,0.73333,0.73333v13.2
		C20.06667,28.12736,19.73667,28.45736,19.33333,28.45736z"/>
	<path class="st1" d="M22.26667,26.99069L22.26667,26.99069c-0.40334,0-0.73334-0.33-0.73334-0.73333v-13.2
		c0-0.40333,0.33-0.73333,0.73333-0.73333h0c0.40333,0,0.73333,0.33,0.73333,0.73333v13.2
		C23,26.66069,22.67,26.99069,22.26667,26.99069z"/>
	<path class="st2" d="M23.64057,14.40137L23.64057,14.40137c-0.20151,0-0.36639-0.16487-0.36639-0.36639V0.41993
		c0-0.20151,0.16488-0.36639,0.36639-0.36639h0c0.20151,0,0.36639,0.16487,0.36639,0.36639v13.61505
		C24.00695,14.2365,23.84208,14.40137,23.64057,14.40137z"/>
	<rect x="0.26667" y="14.66584" class="st1" width="23.46667" height="9.80083"/>
	<g class="st3">
		<path class="st4" d="M3.2,15.25736L3.2,15.25736c-0.40333,0-0.73333-0.33-0.73333-0.73333v-13.2
			c0-0.40333,0.33-0.73333,0.73333-0.73333h0c0.40333,0,0.73333,0.33,0.73333,0.73333v13.2
			C3.93333,14.92736,3.60333,15.25736,3.2,15.25736z"/>
		<path class="st4" d="M6.13333,18.19069L6.13333,18.19069c-0.40333,0-0.73333-0.33-0.73333-0.73333v-13.2
			c0-0.40333,0.33-0.73333,0.73333-0.73333h0c0.40333,0,0.73333,0.33,0.73333,0.73333v13.2
			C6.86667,17.86069,6.53667,18.19069,6.13333,18.19069z"/>
		<path class="st4" d="M9.06667,15.99069L9.06667,15.99069c-0.40333,0-0.73333-0.33-0.73333-0.73333v-13.2
			c0-0.40333,0.33-0.73333,0.73333-0.73333h0C9.47,1.32402,9.8,1.65402,9.8,2.05736v13.2
			C9.8,15.66069,9.47,15.99069,9.06667,15.99069z"/>
		<path class="st4" d="M12,17.45736L12,17.45736c-0.40333,0-0.73333-0.33-0.73333-0.73333v-13.2
			c0-0.40333,0.33-0.73333,0.73333-0.73333h0c0.40333,0,0.73333,0.33,0.73333,0.73333v13.2
			C12.73333,17.12736,12.40333,17.45736,12,17.45736z"/>
		<path class="st4" d="M14.93333,15.25736L14.93333,15.25736c-0.40333,0-0.73333-0.33-0.73333-0.73333v-13.2
			c0-0.40333,0.33-0.73333,0.73333-0.73333h0c0.40333,0,0.73333,0.33,0.73333,0.73333v13.2
			C15.66667,14.92736,15.33667,15.25736,14.93333,15.25736z"/>
		<path class="st4" d="M17.86667,18.19069L17.86667,18.19069c-0.40333,0-0.73333-0.33-0.73333-0.73333v-13.2
			c0-0.40333,0.33-0.73333,0.73333-0.73333l0,0c0.40333,0,0.73333,0.33,0.73333,0.73333v13.2
			C18.6,17.86069,18.27,18.19069,17.86667,18.19069z"/>
		<path class="st4" d="M20.8,15.99069L20.8,15.99069c-0.40334,0-0.73333-0.33-0.73333-0.73333v-13.2
			c0-0.40333,0.33-0.73333,0.73333-0.73333h0c0.40333,0,0.73333,0.33,0.73333,0.73333v13.2
			C21.53333,15.66069,21.20333,15.99069,20.8,15.99069z"/>
	</g>
</g>
</svg>
