<svg id="Layer_1" xmlns="http://www.w3.org/2000/svg" xmlns:xlink="http://www.w3.org/1999/xlink" width="96" height="96" viewBox="0 0 96 96">
  <style>
    .st0{clip-path:url(#SVGID_2_);fill:#ED1875;} .st1{clip-path:url(#SVGID_2_);fill:#FE536D;} .st2{clip-path:url(#SVGID_2_);fill:#29FDDA;}
  </style>
  <defs>
    <circle id="SVGID_1_" cx="48" cy="48" r="47"/>
  </defs>
  <clipPath id="SVGID_2_">
    <use xlink:href="#SVGID_1_" overflow="visible"/>
  </clipPath>
  <circle class="st0" cx="48" cy="48" r="47"/>
  <path class="st1" d="M.65 110.787c-.86 0-1.564-.705-1.564-1.566V51.05c0-.86.704-1.566 1.565-1.566.862 0 1.567.705 1.567 1.566v58.173c0 .862-.705 1.567-1.566 1.567zM6.913 110.787c-.86 0-1.566-.705-1.566-1.566V51.05c0-.86.705-1.566 1.566-1.566.86 0 1.565.705 1.565 1.566v58.173c0 .862-.704 1.567-1.565 1.567zM13.175 120.68c-.86 0-1.566-.703-1.566-1.564V60.943c0-.86.704-1.566 1.565-1.566.86 0 1.565.705 1.565 1.566v58.173c0 .86-.704 1.565-1.565 1.565zM13.175 54.373c-.86 0-1.566-.704-1.566-1.565v-6.35c0-.86.704-1.564 1.565-1.564.86 0 1.565.704 1.565 1.565v6.348c0 .86-.704 1.565-1.565 1.565zM19.437 120.68c-.86 0-1.566-.703-1.566-1.564V60.943c0-.86.706-1.566 1.567-1.566.86 0 1.565.705 1.565 1.566v58.173c0 .86-.704 1.565-1.565 1.565zM25.7 122.787c-.862 0-1.567-.705-1.567-1.566V63.05c0-.86.705-1.566 1.566-1.566.86 0 1.564.705 1.564 1.566v58.173c0 .862-.704 1.567-1.565 1.567zM25.7 56.29c-.862 0-1.567-.705-1.567-1.566v-2.34c0-.86.705-1.564 1.566-1.564.86 0 1.564.704 1.564 1.565v2.34c0 .86-.704 1.565-1.565 1.565zM31.96 118.84c-.86 0-1.565-.705-1.565-1.566V59.1c0-.86.704-1.565 1.565-1.565.86 0 1.566.704 1.566 1.565v58.174c0 .86-.705 1.565-1.566 1.565zM31.96 52.58c-.86 0-1.565-.704-1.565-1.565V46.1c0-.86.704-1.565 1.565-1.565.86 0 1.566.704 1.566 1.565v4.915c0 .86-.705 1.566-1.566 1.566zM38.222 115.734c-.86 0-1.565-.704-1.565-1.565V55.994c0-.86.704-1.565 1.565-1.565.86 0 1.566.704 1.566 1.565v58.174c0 .86-.705 1.564-1.566 1.564zM44.484 120.68c-.86 0-1.565-.703-1.565-1.564V60.943c0-.86.703-1.566 1.564-1.566.86 0 1.566.705 1.566 1.566v58.173c0 .86-.705 1.565-1.566 1.565zM44.484 55.047c-.86 0-1.565-.705-1.565-1.566v-8.903c0-.86.703-1.565 1.564-1.565.86 0 1.566.704 1.566 1.565v8.904c0 .862-.705 1.567-1.566 1.567zM50.746 123.734c-.86 0-1.565-.704-1.565-1.565V63.994c0-.86.705-1.565 1.566-1.565.86 0 1.566.704 1.566 1.565v58.174c0 .86-.705 1.564-1.566 1.564zM57.032 120.68c-.86 0-1.566-.703-1.566-1.564V60.943c0-.86.705-1.566 1.566-1.566.86 0 1.565.705 1.565 1.566v58.173c0 .86-.704 1.565-1.565 1.565zM63.294 125.63c-.86 0-1.566-.706-1.566-1.567V65.89c0-.86.705-1.566 1.566-1.566.86 0 1.565.705 1.565 1.566v58.173c0 .86-.705 1.566-1.566 1.566zM63.294 58.9c-.86 0-1.566-.704-1.566-1.566V54.62c0-.862.705-1.567 1.566-1.567.86 0 1.565.705 1.565 1.566v2.714c0 .86-.705 1.566-1.566 1.566zM69.556 110.787c-.86 0-1.566-.705-1.566-1.566V51.05c0-.86.705-1.566 1.566-1.566.86 0 1.565.705 1.565 1.566v58.173c0 .862-.703 1.567-1.564 1.567zM75.818 114.84c-.86 0-1.566-.705-1.566-1.566V55.1c0-.86.705-1.565 1.566-1.565.86 0 1.565.704 1.565 1.565v58.174c0 .86-.704 1.565-1.565 1.565zM75.818 49c.86 0 1.565-.704 1.565-1.565V40.94c0-.86-.704-1.566-1.565-1.566-.86 0-1.566.705-1.566 1.566v6.495c0 .86.705 1.565 1.566 1.565zM82.08 111.734c-.862 0-1.566-.704-1.566-1.565V51.994c0-.86.704-1.565 1.565-1.565.86 0 1.565.704 1.565 1.565v58.174c0 .86-.705 1.564-1.566 1.564zM88.34 110.787c-.86 0-1.564-.705-1.564-1.566V51.05c0-.86.704-1.566 1.565-1.566.862 0 1.567.705 1.567 1.566v58.173c0 .862-.705 1.567-1.566 1.567zM94.603 115.734c-.86 0-1.565-.704-1.565-1.565V55.994c0-.86.704-1.565 1.565-1.565.86 0 1.566.704 1.566 1.565v58.174c0 .86-.706 1.564-1.567 1.564z"/>
  <path class="st1" d="M-17.93 66.142h178.106v79.402H-17.93z"/>
  <path class="st1" d="M-17.93 66.142h178.106v79.402H-17.93z"/>
  <path class="st0" d="M3.785 69.23c-.86 0-1.566-.706-1.566-1.567V9.49c0-.86.704-1.566 1.565-1.566.86 0 1.565.705 1.565 1.566v58.173c0 .86-.704 1.566-1.565 1.566zM10.047 67.155c-.86 0-1.566-.704-1.566-1.565V7.416c0-.86.706-1.565 1.567-1.565.86 0 1.565.705 1.565 1.566V65.59c0 .86-.704 1.565-1.565 1.565zM16.31 71.208c-.862 0-1.567-.705-1.567-1.566V11.47c0-.862.705-1.567 1.566-1.567.86 0 1.564.705 1.564 1.566V69.64c0 .86-.704 1.566-1.565 1.566zM22.57 77.103c-.86 0-1.565-.705-1.565-1.566V17.364c0-.86.704-1.566 1.565-1.566.86 0 1.566.705 1.566 1.566v58.173c0 .86-.705 1.566-1.566 1.566zM28.832 69.23c-.86 0-1.565-.706-1.565-1.567V9.49c0-.86.704-1.566 1.565-1.566.86 0 1.566.705 1.566 1.566v58.173c0 .86-.705 1.566-1.566 1.566zM35.094 71.208c-.86 0-1.565-.705-1.565-1.566V11.47c0-.862.703-1.567 1.564-1.567.86 0 1.566.705 1.566 1.566V69.64c0 .86-.705 1.566-1.566 1.566zM41.356 76.155c-.86 0-1.565-.704-1.565-1.565V16.416c0-.86.705-1.565 1.566-1.565.86 0 1.566.705 1.566 1.566V74.59c0 .86-.705 1.565-1.566 1.565zM47.618 69.23c-.86 0-1.566-.706-1.566-1.567V9.49c0-.86.705-1.566 1.566-1.566.86 0 1.565.705 1.565 1.566v58.173c0 .86-.704 1.566-1.565 1.566zM53.88 81.103c-.86 0-1.566-.705-1.566-1.566V21.364c0-.86.705-1.566 1.566-1.566.86 0 1.565.705 1.565 1.566v58.173c0 .86-.704 1.566-1.565 1.566zM60.166 69.23c-.86 0-1.566-.706-1.566-1.567V9.49c0-.86.705-1.566 1.566-1.566.86 0 1.565.705 1.565 1.566v58.173c0 .86-.703 1.566-1.564 1.566zM66.428 81.103c-.86 0-1.566-.705-1.566-1.566V21.364c0-.86.705-1.566 1.566-1.566.86 0 1.565.705 1.565 1.566v58.173c0 .86-.704 1.566-1.565 1.566zM72.69 69.23c-.862 0-1.566-.706-1.566-1.567V9.49c0-.86.704-1.566 1.565-1.566.86 0 1.565.705 1.565 1.566v58.173c0 .86-.705 1.566-1.566 1.566zM78.95 71.208c-.86 0-1.564-.705-1.564-1.566V11.47c0-.862.704-1.567 1.565-1.567.862 0 1.567.705 1.567 1.566V69.64c0 .86-.705 1.566-1.566 1.566zM85.213 69.155c-.86 0-1.565-.704-1.565-1.565V9.416c0-.86.704-1.565 1.565-1.565.86 0 1.566.705 1.566 1.566V67.59c0 .86-.706 1.565-1.567 1.565zM91.475 71.208c-.86 0-1.565-.705-1.565-1.566V11.47c0-.862.704-1.567 1.565-1.567.86 0 1.566.705 1.566 1.566V69.64c0 .86-.704 1.566-1.565 1.566z"/>
  <path class="st2" d="M97.737 58.26c-.86 0-1.566-.704-1.566-1.565V-1.478c0-.86.706-1.566 1.567-1.566.86 0 1.565.705 1.565 1.566v58.173c0 .86-.704 1.565-1.565 1.565z"/>
</svg>
