<svg id="Layer_1" xmlns="http://www.w3.org/2000/svg" xmlns:xlink="http://www.w3.org/1999/xlink" width="192" height="192" viewBox="0 0 192 192">
  <style>
    .st0{clip-path:url(#SVGID_2_);fill:#29FDDA;} .st1{clip-path:url(#SVGID_2_);fill:#01DACE;}
  </style>
  <defs>
    <circle id="SVGID_1_" cx="96" cy="96" r="95"/>
  </defs>
  <clipPath id="SVGID_2_">
    <use xlink:href="#SVGID_1_" overflow="visible"/>
  </clipPath>
  <circle class="st0" cx="96" cy="96" r="95"/>
  <path class="st1" d="M.295 206.74c-1.74 0-3.165-1.425-3.165-3.165V85.99c0-1.74 1.424-3.164 3.165-3.164 1.74 0 3.164 1.424 3.164 3.164v117.585c0 1.74-1.425 3.164-3.165 3.164zM12.952 206.74c-1.74 0-3.165-1.425-3.165-3.165V85.99c0-1.74 1.424-3.164 3.165-3.164 1.74 0 3.164 1.424 3.164 3.164v117.585c0 1.74-1.424 3.164-3.164 3.164zM25.61 226.74c-1.742 0-3.166-1.425-3.166-3.165V105.99c0-1.74 1.424-3.164 3.165-3.164 1.74 0 3.163 1.424 3.163 3.164v117.585c0 1.74-1.424 3.164-3.164 3.164zM25.61 93.19c-1.742 0-3.166-1.424-3.166-3.164V81.99c0-1.74 1.424-3.164 3.165-3.164 1.74 0 3.163 1.424 3.163 3.164v8.036c0 1.74-1.424 3.164-3.164 3.164zM38.266 226.74c-1.74 0-3.165-1.425-3.165-3.165V105.99c0-1.74 1.425-3.164 3.166-3.164 1.74 0 3.164 1.424 3.164 3.164v117.585c0 1.74-1.424 3.164-3.164 3.164zM50.923 206.74c-1.74 0-3.165-1.425-3.165-3.165V85.99c0-1.74 1.424-3.164 3.165-3.164 1.74 0 3.164 1.424 3.164 3.164v117.585c0 1.74-1.424 3.164-3.164 3.164zM50.923 73c-1.74 0-3.165-1.424-3.165-3.164V62.99c0-1.74 1.424-3.164 3.165-3.164 1.74 0 3.164 1.424 3.164 3.164v6.846c0 1.74-1.424 3.164-3.164 3.164zM63.58 196.74c-1.74 0-3.165-1.425-3.165-3.165V75.99c0-1.74 1.424-3.164 3.165-3.164 1.74 0 3.164 1.424 3.164 3.164v117.585c0 1.74-1.424 3.164-3.164 3.164zM63.58 62.826c-1.74 0-3.165-1.424-3.165-3.164v-10.55c0-1.74 1.424-3.165 3.165-3.165 1.74 0 3.164 1.424 3.164 3.164v10.552c0 1.74-1.424 3.164-3.164 3.164zM76.237 216.74c-1.74 0-3.165-1.425-3.165-3.165V95.99c0-1.74 1.424-3.164 3.165-3.164 1.74 0 3.164 1.424 3.164 3.164v117.585c0 1.74-1.423 3.164-3.163 3.164zM88.894 226.74c-1.74 0-3.165-1.425-3.165-3.165V105.99c0-1.74 1.423-3.164 3.164-3.164 1.74 0 3.164 1.424 3.164 3.164v117.585c0 1.74-1.424 3.164-3.164 3.164zM88.894 92.702c-1.74 0-3.165-1.424-3.165-3.164V80.99c0-1.74 1.423-3.164 3.164-3.164 1.74 0 3.164 1.424 3.164 3.164v8.548c0 1.74-1.424 3.164-3.164 3.164zM101.55 216.74c-1.74 0-3.164-1.425-3.164-3.165V95.99c0-1.74 1.424-3.164 3.165-3.164 1.74 0 3.165 1.424 3.165 3.164v117.585c0 1.74-1.424 3.164-3.164 3.164zM114.256 226.74c-1.74 0-3.164-1.425-3.164-3.165V105.99c0-1.74 1.424-3.164 3.164-3.164 1.74 0 3.164 1.424 3.164 3.164v117.585c0 1.74-1.424 3.164-3.164 3.164zM114.256 93.456c-1.74 0-3.164-1.424-3.164-3.165v-5.3c0-1.74 1.424-3.164 3.164-3.164 1.74 0 3.164 1.424 3.164 3.164v5.3c0 1.742-1.424 3.166-3.164 3.166zM126.913 236.74c-1.74 0-3.164-1.425-3.164-3.165V115.99c0-1.74 1.423-3.164 3.163-3.164 1.74 0 3.164 1.424 3.164 3.164v117.585c0 1.74-1.424 3.164-3.164 3.164zM139.57 206.74c-1.74 0-3.164-1.425-3.164-3.165V85.99c0-1.74 1.424-3.164 3.164-3.164 1.74 0 3.164 1.424 3.164 3.164v117.585c0 1.74-1.424 3.164-3.164 3.164zM139.57 72.933c-1.74 0-3.164-1.424-3.164-3.164V58.99c0-1.74 1.424-3.164 3.164-3.164 1.74 0 3.164 1.424 3.164 3.164v10.78c0 1.74-1.424 3.163-3.164 3.163zM152.227 62.847c-1.74 0-3.164-1.424-3.164-3.165V53.94c0-1.742 1.424-3.166 3.164-3.166 1.74 0 3.164 1.424 3.164 3.165v5.742c0 1.74-1.423 3.165-3.163 3.165zM152.227 196.74c-1.74 0-3.164-1.425-3.164-3.165V75.99c0-1.74 1.424-3.164 3.164-3.164 1.74 0 3.164 1.424 3.164 3.164v117.585c0 1.74-1.423 3.164-3.163 3.164zM164.884 216.74c-1.74 0-3.164-1.425-3.164-3.165V95.99c0-1.74 1.424-3.164 3.164-3.164 1.74 0 3.164 1.424 3.164 3.164v117.585c0 1.74-1.424 3.164-3.164 3.164zM177.54 206.74c-1.74 0-3.163-1.425-3.163-3.165V85.99c0-1.74 1.424-3.164 3.164-3.164 1.74 0 3.165 1.424 3.165 3.164v117.585c0 1.74-1.424 3.164-3.164 3.164zM177.54 72.835c-1.74 0-3.163-1.424-3.163-3.164V62.99c0-1.74 1.424-3.164 3.164-3.164 1.74 0 3.165 1.424 3.165 3.164v6.683c0 1.74-1.424 3.165-3.164 3.165zM190.198 216.74c-1.74 0-3.164-1.425-3.164-3.165V95.99c0-1.74 1.424-3.164 3.164-3.164 1.74 0 3.164 1.424 3.164 3.164v117.585c0 1.74-1.424 3.164-3.164 3.164z"/>
  <path class="st1" d="M-37.26 116.5h360v160.493h-360z"/>
  <path class="st0" d="M6.63 122.74c-1.742 0-3.165-1.425-3.165-3.165V1.99c0-1.74 1.423-3.164 3.164-3.164 1.74 0 3.163 1.424 3.163 3.164v117.585c0 1.74-1.424 3.164-3.164 3.164zM19.286 136.74c-1.74 0-3.164-1.425-3.164-3.165V15.99c0-1.74 1.423-3.164 3.164-3.164 1.74 0 3.164 1.424 3.164 3.164v117.585c0 1.74-1.424 3.164-3.164 3.164zM31.943 126.74c-1.74 0-3.164-1.425-3.164-3.165V5.99c0-1.74 1.422-3.164 3.163-3.164 1.74 0 3.164 1.424 3.164 3.164v117.585c0 1.74-1.424 3.164-3.164 3.164zM44.6 146.74c-1.74 0-3.164-1.425-3.164-3.165V25.99c0-1.74 1.423-3.164 3.164-3.164 1.74 0 3.164 1.424 3.164 3.164v117.585c0 1.74-1.424 3.164-3.164 3.164zM57.257 122.74c-1.74 0-3.164-1.425-3.164-3.165V1.99c0-1.74 1.423-3.164 3.164-3.164 1.74 0 3.164 1.424 3.164 3.164v117.585c0 1.74-1.423 3.164-3.163 3.164zM69.914 126.74c-1.74 0-3.164-1.425-3.164-3.165V5.99c0-1.74 1.423-3.164 3.164-3.164 1.74 0 3.164 1.424 3.164 3.164v117.585c0 1.74-1.424 3.164-3.164 3.164zM82.57 136.74c-1.74 0-3.163-1.425-3.163-3.165V15.99c0-1.74 1.423-3.164 3.164-3.164 1.74 0 3.165 1.424 3.165 3.164v117.585c0 1.74-1.424 3.164-3.164 3.164zM95.228 122.74c-1.74 0-3.164-1.425-3.164-3.165V1.99c0-1.74 1.423-3.164 3.164-3.164 1.74 0 3.164 1.424 3.164 3.164v117.585c0 1.74-1.424 3.164-3.164 3.164zM107.885 146.74c-1.74 0-3.164-1.425-3.164-3.165V25.99c0-1.74 1.424-3.164 3.165-3.164 1.74 0 3.164 1.424 3.164 3.164v117.585c0 1.74-1.425 3.164-3.165 3.164zM120.59 122.74c-1.74 0-3.164-1.425-3.164-3.165V1.99c0-1.74 1.424-3.164 3.164-3.164 1.74 0 3.164 1.424 3.164 3.164v117.585c0 1.74-1.424 3.164-3.164 3.164zM133.247 146.74c-1.74 0-3.164-1.425-3.164-3.165V25.99c0-1.74 1.424-3.164 3.164-3.164 1.74 0 3.164 1.424 3.164 3.164v117.585c0 1.74-1.423 3.164-3.163 3.164zM145.904 122.74c-1.74 0-3.164-1.425-3.164-3.165V1.99c0-1.74 1.424-3.164 3.164-3.164 1.74 0 3.164 1.424 3.164 3.164v117.585c0 1.74-1.424 3.164-3.164 3.164zM158.56 126.74c-1.74 0-3.163-1.425-3.163-3.165V5.99c0-1.74 1.424-3.164 3.164-3.164 1.74 0 3.165 1.424 3.165 3.164v117.585c0 1.74-1.424 3.164-3.164 3.164zM171.218 136.74c-1.74 0-3.164-1.425-3.164-3.165V15.99c0-1.74 1.424-3.164 3.164-3.164 1.74 0 3.164 1.424 3.164 3.164v117.585c0 1.74-1.424 3.164-3.164 3.164zM183.875 126.74c-1.74 0-3.164-1.425-3.164-3.165V5.99c0-1.74 1.425-3.164 3.165-3.164s3.164 1.424 3.164 3.164v117.585c0 1.74-1.425 3.164-3.165 3.164zM196.532 116.74c-1.74 0-3.164-1.425-3.164-3.165V-4.01c0-1.74 1.424-3.164 3.164-3.164 1.74 0 3.164 1.424 3.164 3.164v117.585c0 1.74-1.424 3.164-3.164 3.164z"/>
</svg>
