<svg id="Layer_1" xmlns="http://www.w3.org/2000/svg" xmlns:xlink="http://www.w3.org/1999/xlink" width="32" height="32" viewBox="0 0 32 32">
  <style>
    .st0{clip-path:url(#SVGID_2_);fill:#FED38B;} .st1{clip-path:url(#SVGID_2_);fill:#FBA987;} .st2{clip-path:url(#SVGID_2_);fill:#29FDDA;} .st3{clip-path:url(#SVGID_2_);} .st4{fill:#FED38B;}
  </style>
  <defs>
    <circle id="SVGID_1_" cx="16" cy="16" r="15"/>
  </defs>
  <clipPath id="SVGID_2_">
    <use xlink:href="#SVGID_1_" overflow="visible"/>
  </clipPath>
  <circle class="st0" cx="16" cy="16" r="15"/>
  <path class="st1" d="M2.024 36.442h-.048c-.537 0-.976-.44-.976-.976V17.418c0-.537.44-.976.976-.976h.048c.537 0 .976.44.976.976v18.048c0 .537-.44.976-.976.976zM6.024 35.442h-.048c-.537 0-.976-.44-.976-.976V16.418c0-.537.44-.976.976-.976h.048c.537 0 .976.44.976.976v18.048c0 .537-.44.976-.976.976zM6.024 13.844h-.048c-.537 0-.976-.44-.976-.976v-.852c0-.537.44-.976.976-.976h.048c.537 0 .976.44.976.976v.852c0 .537-.44.976-.976.976zM10.024 15.844h-.048c-.537 0-.976-.44-.976-.976v-.852c0-.537.44-.976.976-.976h.048c.537 0 .976.44.976.976v.852c0 .537-.44.976-.976.976zM18.024 12.844h-.048c-.537 0-.976-.44-.976-.976v-.852c0-.537.44-.976.976-.976h.048c.537 0 .976.44.976.976v.852c0 .537-.44.976-.976.976zM26.024 16.844h-.048c-.537 0-.976-.44-.976-.976v-.852c0-.537.44-.976.976-.976h.048c.537 0 .976.44.976.976v.852c0 .537-.44.976-.976.976zM10.024 37.442h-.048c-.537 0-.976-.44-.976-.976V18.418c0-.537.44-.976.976-.976h.048c.537 0 .976.44.976.976v18.048c0 .537-.44.976-.976.976zM14.024 37.442h-.048c-.537 0-.976-.44-.976-.976V18.418c0-.537.44-.976.976-.976h.048c.537 0 .976.44.976.976v18.048c0 .537-.44.976-.976.976zM18.024 34.442h-.048c-.537 0-.976-.44-.976-.976V15.418c0-.537.44-.976.976-.976h.048c.537 0 .976.44.976.976v18.048c0 .537-.44.976-.976.976zM22.024 35.442h-.048c-.537 0-.976-.44-.976-.976V16.418c0-.537.44-.976.976-.976h.048c.537 0 .976.44.976.976v18.048c0 .537-.44.976-.976.976zM26.024 38.442h-.048c-.537 0-.976-.44-.976-.976V19.418c0-.537.44-.976.976-.976h.048c.537 0 .976.44.976.976v18.048c0 .537-.44.976-.976.976zM30.024 36.442h-.048c-.537 0-.976-.44-.976-.976V17.418c0-.537.44-.976.976-.976h.048c.537 0 .976.44.976.976v18.048c0 .537-.44.976-.976.976z"/>
  <path class="st2" d="M31.873 19.275c-.274 0-.5-.225-.5-.5V.21c0-.276.226-.5.5-.5.275 0 .5.224.5.5v18.565c0 .275-.225.5-.5.5z"/>
  <path class="st1" d="M0 19.635h32V33H0z"/>
  <g class="st3">
    <path class="st4" d="M4.024 20.442h-.048c-.537 0-.976-.44-.976-.976V1.418c0-.537.44-.976.976-.976h.048c.537 0 .976.44.976.976v18.048c0 .537-.44.976-.976.976zM8.024 24.442h-.048c-.537 0-.976-.44-.976-.976V5.418c0-.537.44-.976.976-.976h.048c.537 0 .976.44.976.976v18.048c0 .537-.44.976-.976.976zM12.024 21.442h-.048c-.537 0-.976-.44-.976-.976V2.418c0-.537.44-.976.976-.976h.048c.537 0 .976.44.976.976v18.048c0 .537-.44.976-.976.976zM16.024 23.442h-.048c-.537 0-.976-.44-.976-.976V4.418c0-.537.44-.976.976-.976h.048c.537 0 .976.44.976.976v18.048c0 .537-.44.976-.976.976zM20.024 20.442h-.048c-.537 0-.976-.44-.976-.976V1.418c0-.537.44-.976.976-.976h.048c.537 0 .976.44.976.976v18.048c0 .537-.44.976-.976.976zM24.024 24.442h-.048c-.537 0-.976-.44-.976-.976V5.418c0-.537.44-.976.976-.976h.048c.537 0 .976.44.976.976v18.048c0 .537-.44.976-.976.976zM28.024 21.442h-.048c-.537 0-.976-.44-.976-.976V2.418c0-.537.44-.976.976-.976h.048c.537 0 .976.44.976.976v18.048c0 .537-.44.976-.976.976z"/>
  </g>
</svg>
