<svg id="Layer_1" xmlns="http://www.w3.org/2000/svg" xmlns:xlink="http://www.w3.org/1999/xlink" width="80" height="80" viewBox="0 0 80 80">
  <style>
    .st0{fill:#42D9FC;} .st1{clip-path:url(#SVGID_2_);fill:#483D6B;} .st2{clip-path:url(#SVGID_2_);fill:#231C36;} .st3{clip-path:url(#SVGID_2_);fill:#29FDDA;} .st4{clip-path:url(#SVGID_2_);} .st5{fill:#483D6B;}
  </style>
  <path class="st0" d="M40 1C18.46 1 1 18.46 1 40s17.46 39 39 39 39-17.46 39-39S61.54 1 40 1zm0 75.28C19.964 76.28 3.72 60.035 3.72 40S19.965 3.72 40 3.72 76.28 19.965 76.28 40 60.035 76.28 40 76.28z"/>
  <defs>
    <circle id="SVGID_1_" cx="40" cy="40" r="33.558"/>
  </defs>
  <clipPath id="SVGID_2_">
    <use xlink:href="#SVGID_1_" overflow="visible"/>
  </clipPath>
  <circle class="st1" cx="40" cy="40" r="33.558"/>
  <path class="st2" d="M8.68 87.454c-1.184 0-2.152-.968-2.152-2.15V44.86c0-1.183.968-2.15 2.15-2.15 1.184 0 2.152.967 2.152 2.15v40.442c0 1.184-.968 2.152-2.15 2.152zM17.284 85.733c-1.183 0-2.15-.968-2.15-2.15V43.14c0-1.183.967-2.15 2.15-2.15 1.183 0 2.15.967 2.15 2.15v40.442c0 1.183-.967 2.15-2.15 2.15zM17.284 38.268c-1.183 0-2.15-.968-2.15-2.152V32.83c0-1.182.967-2.15 2.15-2.15 1.183 0 2.15.968 2.15 2.15v3.286c0 1.184-.967 2.152-2.15 2.152zM25.888 82.29c-1.183 0-2.15-.967-2.15-2.15V39.698c0-1.183.967-2.15 2.15-2.15 1.184 0 2.152.967 2.152 2.15V80.14c0 1.183-.968 2.15-2.152 2.15zM25.888 34.822c-1.183 0-2.15-.968-2.15-2.15V30.6c0-1.184.967-2.152 2.15-2.152 1.184 0 2.152.968 2.152 2.15v2.07c0 1.184-.968 2.152-2.152 2.152zM34.493 88.314c-1.183 0-2.15-.968-2.15-2.15V45.72c0-1.182.967-2.15 2.15-2.15 1.183 0 2.15.968 2.15 2.15v40.443c0 1.183-.967 2.15-2.15 2.15zM43.098 88.314c-1.183 0-2.15-.968-2.15-2.15V45.72c0-1.182.967-2.15 2.15-2.15 1.183 0 2.15.968 2.15 2.15v40.443c0 1.183-.967 2.15-2.15 2.15zM43.098 41.03c-1.183 0-2.15-.967-2.15-2.15v-3.136c0-1.183.967-2.15 2.15-2.15 1.183 0 2.15.967 2.15 2.15v3.136c0 1.183-.967 2.15-2.15 2.15zM51.702 82.29c-1.183 0-2.15-.967-2.15-2.15V39.698c0-1.183.967-2.15 2.15-2.15 1.183 0 2.152.967 2.152 2.15V80.14c0 1.183-.97 2.15-2.152 2.15zM60.307 87.407c-1.183 0-2.15-.968-2.15-2.15V44.813c0-1.183.967-2.15 2.15-2.15 1.183 0 2.15.967 2.15 2.15v40.442c0 1.183-.967 2.15-2.15 2.15zM60.307 40.233c-1.183 0-2.15-.968-2.15-2.15V36.65c0-1.182.967-2.15 2.15-2.15 1.183 0 2.15.968 2.15 2.15v1.432c0 1.183-.967 2.15-2.15 2.15zM68.912 83.15c-1.183 0-2.152-.967-2.152-2.15V40.558c0-1.183.97-2.15 2.152-2.15 1.183 0 2.15.967 2.15 2.15V81c0 1.183-.967 2.15-2.15 2.15z"/>
  <path class="st3" d="M76.13 47.326h-1.236c-.275 0-.5-.225-.5-.5V4.054c0-.275.225-.5.5-.5h1.236c.275 0 .5.225.5.5v42.772c0 .275-.225.5-.5.5z"/>
  <path class="st2" d="M4.205 45.55h71.59v29.9H4.206z"/>
  <g class="st4">
    <path class="st5" d="M12.98 50.454c-1.182 0-2.15-.968-2.15-2.15V7.86c0-1.183.968-2.15 2.15-2.15 1.185 0 2.153.967 2.153 2.15v40.442c0 1.184-.968 2.152-2.152 2.152zM21.586 53.896c-1.183 0-2.15-.968-2.15-2.152V11.303c0-1.184.967-2.152 2.15-2.152 1.183 0 2.15.97 2.15 2.153v40.44c0 1.185-.967 2.153-2.15 2.153zM30.19 50.454c-1.182 0-2.15-.968-2.15-2.15V7.86c0-1.183.968-2.15 2.15-2.15 1.184 0 2.152.967 2.152 2.15v40.442c0 1.184-.968 2.152-2.15 2.152zM38.795 57.337c-1.183 0-2.15-.968-2.15-2.15V14.743c0-1.183.967-2.15 2.15-2.15 1.184 0 2.152.967 2.152 2.15v40.442c0 1.183-.968 2.15-2.152 2.15zM47.4 53.896c-1.183 0-2.15-.968-2.15-2.152V11.303c0-1.184.967-2.152 2.15-2.152 1.183 0 2.15.97 2.15 2.153v40.44c0 1.185-.967 2.153-2.15 2.153zM56.005 48.733c-1.183 0-2.15-.968-2.15-2.15V6.14c0-1.183.967-2.15 2.15-2.15 1.183 0 2.15.967 2.15 2.15v40.442c0 1.183-.967 2.15-2.15 2.15zM64.61 53.896c-1.184 0-2.152-.968-2.152-2.152V11.303c0-1.184.968-2.152 2.15-2.152 1.184 0 2.152.97 2.152 2.153v40.44c0 1.185-.968 2.153-2.15 2.153zM73.214 47.012c-1.183 0-2.15-.968-2.15-2.15V4.418c0-1.184.967-2.152 2.15-2.152 1.183 0 2.15.968 2.15 2.15v40.443c0 1.184-.967 2.152-2.15 2.152z"/>
  </g>
</svg>
