<svg id="Layer_1" xmlns="http://www.w3.org/2000/svg" xmlns:xlink="http://www.w3.org/1999/xlink" width="80" height="80" viewBox="0 0 80 80">
  <style>
    .st0{fill:#42D9FC;} .st1{clip-path:url(#SVGID_2_);fill:#483D6B;} .st2{clip-path:url(#SVGID_2_);fill:#231C36;} .st3{clip-path:url(#SVGID_2_);fill:#29FDDA;} .st4{clip-path:url(#SVGID_2_);} .st5{fill:#483D6B;}
  </style>
  <circle class="st0" cx="40" cy="40" r="39"/>
  <defs>
    <circle id="SVGID_1_" cx="40" cy="40" r="37"/>
  </defs>
  <clipPath id="SVGID_2_">
    <use xlink:href="#SVGID_1_" overflow="visible"/>
  </clipPath>
  <circle class="st1" cx="40" cy="40" r="37"/>
  <path class="st2" d="M5.467 92.32c-1.305 0-2.372-1.067-2.372-2.37V45.36c0-1.305 1.067-2.373 2.372-2.373 1.304 0 2.37 1.068 2.37 2.372v44.59c0 1.303-1.066 2.37-2.37 2.37zM14.954 90.423c-1.305 0-2.372-1.067-2.372-2.372V43.463c0-1.305 1.067-2.372 2.372-2.372 1.304 0 2.372 1.067 2.372 2.372v44.59c0 1.304-1.068 2.37-2.372 2.37zM14.954 38.09c-1.305 0-2.372-1.067-2.372-2.372v-3.622c0-1.304 1.067-2.372 2.372-2.372 1.304 0 2.372 1.068 2.372 2.372v3.622c0 1.305-1.068 2.372-2.372 2.372zM24.44 86.628c-1.303 0-2.37-1.067-2.37-2.37v-44.59c0-1.306 1.067-2.373 2.37-2.373 1.306 0 2.373 1.067 2.373 2.372v44.59c0 1.304-1.067 2.37-2.372 2.37zM24.44 34.29c-1.303 0-2.37-1.066-2.37-2.37v-2.283c0-1.304 1.067-2.372 2.37-2.372 1.306 0 2.373 1.068 2.373 2.372v2.282c0 1.304-1.067 2.37-2.372 2.37zM33.928 93.27c-1.304 0-2.372-1.068-2.372-2.372v-44.59c0-1.305 1.068-2.372 2.372-2.372 1.305 0 2.372 1.067 2.372 2.372v44.59c0 1.304-1.067 2.37-2.372 2.37zM43.415 93.27c-1.304 0-2.37-1.068-2.37-2.372v-44.59c0-1.305 1.066-2.372 2.37-2.372 1.305 0 2.372 1.067 2.372 2.372v44.59c0 1.304-1.067 2.37-2.372 2.37zM43.415 41.136c-1.304 0-2.37-1.067-2.37-2.37v-3.458c0-1.305 1.066-2.372 2.37-2.372 1.305 0 2.372 1.067 2.372 2.372v3.457c0 1.304-1.067 2.37-2.372 2.37zM52.903 86.628c-1.305 0-2.372-1.067-2.372-2.37v-44.59c0-1.306 1.068-2.373 2.373-2.373 1.304 0 2.37 1.067 2.37 2.372v44.59c0 1.304-1.066 2.37-2.37 2.37zM62.39 92.27c-1.305 0-2.372-1.068-2.372-2.372v-44.59c0-1.305 1.067-2.372 2.372-2.372 1.304 0 2.372 1.067 2.372 2.372v44.59c0 1.304-1.068 2.37-2.372 2.37zM62.39 40.257c-1.305 0-2.372-1.067-2.372-2.372v-1.577c0-1.305 1.067-2.372 2.372-2.372 1.304 0 2.372 1.067 2.372 2.372v1.577c0 1.305-1.068 2.372-2.372 2.372zM71.877 87.577c-1.305 0-2.372-1.067-2.372-2.372v-44.59c0-1.304 1.067-2.37 2.372-2.37 1.304 0 2.372 1.066 2.372 2.37v44.59c0 1.305-1.07 2.372-2.373 2.372z"/>
  <path class="st3" d="M79.887 48.077h-1.465c-.275 0-.5-.224-.5-.5V.318c0-.276.225-.5.5-.5h1.465c.275 0 .5.224.5.5v47.26c0 .276-.225.5-.5.5z"/>
  <path class="st2" d="M.533 46.12h78.933v32.967H.533z"/>
  <g class="st4">
    <path class="st5" d="M10.21 51.526c-1.304 0-2.372-1.068-2.372-2.372V4.564c0-1.304 1.068-2.372 2.372-2.372 1.305 0 2.372 1.068 2.372 2.372v44.59c0 1.304-1.067 2.372-2.372 2.372zM19.697 55.32c-1.304 0-2.37-1.067-2.37-2.37V8.36c0-1.305 1.066-2.373 2.37-2.373 1.305 0 2.372 1.068 2.372 2.372v44.59c0 1.303-1.068 2.37-2.373 2.37zM29.185 51.526c-1.305 0-2.372-1.068-2.372-2.372V4.564c0-1.304 1.067-2.372 2.372-2.372 1.304 0 2.37 1.068 2.37 2.372v44.59c0 1.304-1.066 2.372-2.37 2.372zM38.672 59.116c-1.305 0-2.372-1.068-2.372-2.372v-44.59c0-1.304 1.067-2.372 2.372-2.372 1.304 0 2.372 1.068 2.372 2.372v44.59c0 1.304-1.068 2.372-2.372 2.372zM48.16 55.32c-1.306 0-2.373-1.067-2.373-2.37V8.36c0-1.305 1.067-2.373 2.372-2.373 1.303 0 2.37 1.068 2.37 2.372v44.59c0 1.303-1.067 2.37-2.37 2.37zM57.646 49.628c-1.304 0-2.372-1.067-2.372-2.37V2.667c0-1.306 1.068-2.373 2.372-2.373 1.305 0 2.372 1.067 2.372 2.372v44.59c0 1.304-1.067 2.37-2.372 2.37zM67.133 55.32c-1.304 0-2.37-1.067-2.37-2.37V8.36c0-1.305 1.066-2.373 2.37-2.373 1.305 0 2.372 1.068 2.372 2.372v44.59c0 1.303-1.067 2.37-2.372 2.37zM76.62 47.73c-1.304 0-2.37-1.066-2.37-2.37V.77c0-1.305 1.066-2.372 2.37-2.372 1.305 0 2.372 1.067 2.372 2.37v44.59c0 1.306-1.067 2.373-2.37 2.373z"/>
  </g>
</svg>
