<svg id="rocket" xmlns="http://www.w3.org/2000/svg" width="110" height="400" viewBox="0 0 110 400">
  <style>
    .st0{fill:#02C4C4;} .st1{fill:#1CEBD4;} .st2{fill:#FFFFFF;} .st3{fill:#7F8C8D;} .st4{fill:#95A5A6;} .st5{fill:#F1F1F1;} .st6{fill:#dedede;} 
  </style>
  <g id="flames">
	  <path class="st0" d="M38.447 372.364c-1.465 0-2.663-1.198-2.663-2.662v-14.91c0-1.465 1.198-2.663 2.663-2.663 1.464 0 2.662 1.197 2.662 2.662v14.91c0 1.464-1.2 2.662-2.663 2.662z"/>
	  <path id="spark1" class="st0" d="M38.447 384.55c-1.465 0-2.663-1.2-2.663-2.663v-1.535c0-1.464 1.198-2.663 2.663-2.663 1.464 0 2.662 1.198 2.662 2.662v1.535c0 1.464-1.2 2.662-2.663 2.662z"/>
	  <path class="st0" d="M49.097 367.04c-1.465 0-2.663-1.2-2.663-2.663v-14.91c0-1.465 1.198-2.663 2.663-2.663 1.464 0 2.662 1.198 2.662 2.663v14.91c0 1.464-1.2 2.662-2.663 2.662z"/>
	  <path id="spark2" class="st0" d="M49.097 392.6c-1.465 0-2.663-1.2-2.663-2.663v-14.91c0-1.464 1.198-2.663 2.663-2.663 1.464 0 2.662 1.2 2.662 2.663v14.91c0 1.464-1.2 2.663-2.663 2.663z"/>
	  <path class="st0" d="M59.747 377.69c-1.465 0-2.663-1.2-2.663-2.663v-14.91c0-1.465 1.198-2.663 2.663-2.663 1.464 0 2.662 1.198 2.662 2.663v14.91c0 1.464-1.2 2.662-2.663 2.662zM70.397 362.78c-1.464 0-2.663-1.2-2.663-2.663v-14.91c0-1.465 1.2-2.663 2.663-2.663 1.464 0 2.662 1.198 2.662 2.663v14.91c0 1.464-1.2 2.662-2.663 2.662z"/>
	  <path id="spark3" class="st0" d="M70.397 398c-1.464 0-2.663-1.198-2.663-2.663v-24.57c0-1.464 1.2-2.663 2.663-2.663 1.464 0 2.662 1.2 2.662 2.663v24.57c0 1.465-1.2 2.663-2.663 2.663z"/>
	  <path class="st0" d="M54.422 207.82s-18.638 16.508-18.638 39.406V360.65h5.325v-5.858c0-1.465 1.197-2.663 2.662-2.663s2.662 1.197 2.662 2.662v5.857h5.325v-21.833c0-1.465 1.197-2.663 2.662-2.663 1.464 0 2.662 1.198 2.662 2.663v21.832h5.325v-5.858c0-1.465 1.198-2.663 2.662-2.663s2.662 1.197 2.662 2.662v5.857h5.325V247.225c0-22.898-18.638-39.405-18.638-39.405z"/>
	  <path class="st1" d="M54.422 207.82S41.11 232.443 41.11 253.36v57.234h26.624V253.36c0-20.918-13.312-45.54-13.312-45.54z"/>
	  <path class="st0" d="M49.097 318.05c-1.465 0-2.663-1.2-2.663-2.663v-14.91c0-1.465 1.198-2.663 2.663-2.663 1.464 0 2.662 1.198 2.662 2.662v14.91c0 1.465-1.2 2.663-2.663 2.663zM59.747 323.374c-1.465 0-2.663-1.198-2.663-2.662v-14.91c0-1.465 1.198-2.663 2.663-2.663 1.464 0 2.662 1.197 2.662 2.66v14.912c0 1.464-1.2 2.662-2.663 2.662z"/>
	  <path class="st1" d="M65.072 323.374c-1.465 0-2.663-1.198-2.663-2.662v-14.91c0-1.465 1.197-2.663 2.662-2.663 1.464 0 2.662 1.197 2.662 2.66v14.912c0 1.464-1.198 2.662-2.662 2.662zM54.422 315.92c-1.465 0-2.663-1.2-2.663-2.664v-14.91c0-1.464 1.197-2.662 2.662-2.662 1.464 0 2.662 1.198 2.662 2.662v14.91c0 1.465-1.198 2.663-2.662 2.663zM43.772 324.794c-1.465 0-2.663-1.198-2.663-2.662v-18.46c0-1.465 1.197-2.663 2.662-2.663 1.464 0 2.662 1.197 2.662 2.66v18.462c0 1.464-1.198 2.662-2.662 2.662z"/>
	  <path id="spark4" class="st1" d="M43.772 341.834c-1.465 0-2.663-1.198-2.663-2.662v-8.875c0-1.465 1.197-2.663 2.662-2.663 1.464 0 2.662 1.198 2.662 2.663v8.875c0 1.464-1.198 2.662-2.662 2.662z"/>
	  <path id="spark6" class="st1" d="M65.072 348.54c-1.465 0-2.663-1.198-2.663-2.662v-15.58c0-1.466 1.197-2.664 2.662-2.664 1.464 0 2.662 1.198 2.662 2.663v15.58c0 1.465-1.198 2.663-2.662 2.663z"/>
	  <path id="spark5" class="st1" d="M54.422 325.18c-1.465 0-2.663-1.2-2.663-2.664v-1.272c0-1.464 1.197-2.662 2.662-2.662 1.464 0 2.662 1.198 2.662 2.662v1.272c0 1.465-1.198 2.663-2.662 2.663z"/>
	  <path class="st2" d="M54.422 207.82s-7.988 21.476-7.988 39.31v21.3H62.41v-21.3c0-17.834-7.988-39.31-7.988-39.31z"/>
	  <path class="st1" d="M54.422 280.064c-1.465 0-2.663-1.198-2.663-2.663v-18.46c0-1.463 1.197-2.66 2.662-2.66 1.464 0 2.662 1.197 2.662 2.66v18.46c0 1.466-1.198 2.664-2.662 2.664z"/>
	  <path class="st2" d="M49.097 277.4c-1.465 0-2.663-1.197-2.663-2.66v-18.46c0-1.466 1.198-2.664 2.663-2.664 1.464 0 2.662 1.198 2.662 2.663v18.46c0 1.463-1.2 2.66-2.663 2.66zM59.747 271.01c-1.465 0-2.663-1.197-2.663-2.66v-18.46c0-1.466 1.198-2.664 2.663-2.664 1.464 0 2.662 1.198 2.662 2.663v18.46c0 1.463-1.2 2.66-2.663 2.66z"/>
	  <path id="spark8" class="st2" d="M59.747 297.266c-1.465 0-2.663-1.198-2.663-2.662V284.55c0-1.465 1.198-2.663 2.663-2.663 1.464 0 2.662 1.198 2.662 2.663v10.054c0 1.464-1.2 2.662-2.663 2.662z"/>
	  <path id="spark7" class="st2" d="M49.097 292.17c-1.465 0-2.663-1.198-2.663-2.663v-6.78c0-1.465 1.198-2.663 2.663-2.663 1.464 0 2.662 1.198 2.662 2.662v6.78c0 1.466-1.2 2.664-2.663 2.664z"/>
	  <path class="st2" d="M59.747 279.225c-1.465 0-2.663-1.198-2.663-2.663 0-1.464 1.198-2.662 2.663-2.662 1.464 0 2.662 1.198 2.662 2.662 0 1.465-1.2 2.663-2.663 2.663z"/>
  </g>
  <path class="st3" d="M80.403 214.76c-.082-3.57-25.98-2.07-25.98-2.07s-25.9-1.5-25.982 2.07c-.152 6.65 1.894 6.865 1.894 6.865l24.088.95 24.088-.95s2.045-.214 1.893-6.866z"/>
  <g>
    <path class="st4" d="M88.78 251.584c.107 1.652 1.708 1.963 2.124.413 4.6-17.145 16.494-62.693 15.152-70.543-1.476-8.63-21.81-32.008-25.117-39.54-.213-.483-.65-.215-.65.4 0 0-10.146 69.92-1.298 71.647 6.597 1.287 8.995 25.424 9.788 37.624z"/>
    <path class="st3" d="M78.992 213.96c1.046.205.566-.415 1.41.8l10.69-57.738c-4.597-6.29-8.8-12.025-10.153-15.107-.213-.484-.65-.216-.65.4 0 0-10.146 69.92-1.298 71.646z"/>
  </g>
  <g>
    <path class="st4" d="M20.064 251.584c-.107 1.652-1.708 1.963-2.124.413-4.6-17.145-16.494-62.693-15.152-70.543 1.476-8.63 21.81-32.008 25.116-39.54.213-.483.648-.215.65.4 0 0 10.146 69.92 1.298 71.647-6.597 1.287-8.995 25.424-9.788 37.624z"/>
    <path class="st3" d="M29.852 213.96c-1.046.205-.566-.415-1.41.8L17.75 157.02c4.596-6.29 8.8-12.025 10.152-15.107.213-.484.648-.216.65.4 0 0 10.146 69.92 1.298 71.646z"/>
  </g>
  <path class="st2" d="M84.367 44.068C72.02 14.605 54.422 2 54.422 2S36.824 14.605 24.476 44.068c-9.552 22.792 3.965 170.69 3.965 170.69h51.962S93.92 66.86 84.368 44.07z"/>
  <path class="st5" d="M54.422 2S36.824 14.605 24.476 44.068c-9.552 22.792 3.965 170.69 3.965 170.69h25.982V2z"/>
  <g>
    <circle class="st6" cx="54.407" cy="68.03" r="10.945"/>
  </g>
  <path class="st4" d="M43.462 68.03c0 6.045 4.9 10.945 10.945 10.945 6.044 0 10.945-4.9 10.945-10.945 0-6.044-4.9-10.944-10.945-10.944s-10.945 4.9-10.945 10.944zm1.64 0c0-5.14 4.165-9.305 9.305-9.305s9.306 4.166 9.306 9.305c0 5.14-4.167 9.306-9.306 9.306-5.14 0-9.306-4.166-9.306-9.306z"/>
</svg>
